<?xml version="1.0" encoding="UTF-8" standalone="no"?>
<svg width="999px" height="768px" viewBox="0 0 999 768" version="1.1" xmlns="http://www.w3.org/2000/svg" xmlns:xlink="http://www.w3.org/1999/xlink">
    <!-- Generator: Sketch 47 (45396) - http://www.bohemiancoding.com/sketch -->
    <title>Symbols</title>
    <desc>Created with Sketch.</desc>
    <defs></defs>
    <g id="Page-1" stroke="none" stroke-width="1" fill="none" fill-rule="evenodd" opacity="0.200000018">
        <g id="Slack_Request" fill="#FFFFFF">
            <g id="Symbols" transform="translate(0.000000, -18.000000)">
                <polygon id="/" points="320.738372 64 336 0 326.043605 0 311 64"></polygon>
                <polygon id="]" points="22 283 0.487223169 283 0.487223169 291.210214 11.5059625 291.210214 11.5059625 336.826603 0 336.826603 0 345 22 345"></polygon>
                <path d="M100.140227,510.596983 L100.140227,509.9375 C105.570822,509.461207 108.094901,506.603448 108.094901,501.25431 L108.094901,492.571121 C108.094901,486.818966 110.045326,485.060345 116.279037,485.060345 L118,485.060345 L118,477 L113.984419,477 C102.320113,477 97.4249292,481.030172 97.4249292,490.775862 L97.4249292,497.553879 C97.4249292,503.269397 95.8186969,505.174569 91,505.174569 L91,515.323276 C95.8186969,515.323276 97.4249292,517.228448 97.4249292,522.907328 L97.4249292,530.894397 C97.4249292,540.859914 102.358357,545 113.984419,545 L118,545 L118,536.976293 L116.279037,536.976293 C110.083569,536.976293 108.094901,535.217672 108.094901,529.502155 L108.094901,519.976293 C108.094901,514.37069 105.34136,511.073276 100.140227,510.596983 Z" id="{"></path>
                <path d="M900.140227,768.596983 L900.140227,767.9375 C905.570822,767.461207 908.094901,764.603448 908.094901,759.25431 L908.094901,750.571121 C908.094901,744.818966 910.045326,743.060345 916.279037,743.060345 L918,743.060345 L918,735 L913.984419,735 C902.320113,735 897.424929,739.030172 897.424929,748.775862 L897.424929,755.553879 C897.424929,761.269397 895.818697,763.174569 891,763.174569 L891,773.323276 C895.818697,773.323276 897.424929,775.228448 897.424929,780.907328 L897.424929,788.894397 C897.424929,798.859914 902.358357,803 913.984419,803 L918,803 L918,794.976293 L916.279037,794.976293 C910.083569,794.976293 908.094901,793.217672 908.094901,787.502155 L908.094901,777.976293 C908.094901,772.37069 905.34136,769.073276 900.140227,768.596983 Z" id="{" transform="translate(904.500000, 769.000000) scale(-1, 1) translate(-904.500000, -769.000000) "></path>
                <polygon id="+" points="915.086111 118.16186 930 118.16186 930 108.80186 915.086111 108.80186 915.086111 94 905.877778 94 905.877778 108.80186 891 108.80186 891 118.16186 905.877778 118.16186 905.877778 133 915.086111 133"></polygon>
                <polygon id="+-copy" points="399.086111 496.16186 414 496.16186 414 486.80186 399.086111 486.80186 399.086111 472 389.877778 472 389.877778 486.80186 375 486.80186 375 496.16186 389.877778 496.16186 389.877778 511 399.086111 511"></polygon>
                <polygon id="[" points="977 293 977 355 999 355 999 346.826603 987.531516 346.826603 987.531516 301.210214 998.550256 301.210214 998.550256 293"></polygon>
                <path d="M207.268314,803 L202.202118,803 L202.202118,798.356936 C190.875552,797.688334 184.036187,791.819501 184,782.756239 L194.349515,782.756239 C194.602824,786.433546 197.678729,789.18224 202.202118,789.665119 L202.202118,775.847359 L198.402471,774.918746 C189.717564,772.838654 185.049426,767.71271 185.049426,759.949507 C185.049426,750.811956 191.418358,744.943122 202.202118,744.051654 L202.202118,739 L207.268314,739 L207.268314,744.051654 C217.328332,745.017411 223.842012,751.071967 223.986761,759.652351 L213.890556,759.652351 C213.781995,756.2722 211.067961,753.486361 207.268314,752.929193 L207.268314,766.152641 L211.140335,766.96982 C220.440424,769.012768 225,773.952989 225,781.976204 C225,791.448056 218.594881,797.316889 207.268314,798.282647 L207.268314,803 Z M214.72286,783.239118 C214.72286,779.821822 212.33451,777.74173 207.268314,776.775972 L207.268314,789.702263 C211.972639,789.405107 214.72286,786.990714 214.72286,783.239118 Z M195.543689,758.90946 C195.543689,762.0296 197.823477,764.183981 202.202118,765.07545 L202.202118,752.892049 C198.29391,753.114916 195.543689,755.603598 195.543689,758.90946 Z" id="$"></path>
                <path d="M624.268314,325 L619.202118,325 L619.202118,320.356936 C607.875552,319.688334 601.036187,313.819501 601,304.756239 L611.349515,304.756239 C611.602824,308.433546 614.678729,311.18224 619.202118,311.665119 L619.202118,297.847359 L615.402471,296.918746 C606.717564,294.838654 602.049426,289.71271 602.049426,281.949507 C602.049426,272.811956 608.418358,266.943122 619.202118,266.051654 L619.202118,261 L624.268314,261 L624.268314,266.051654 C634.328332,267.017411 640.842012,273.071967 640.986761,281.652351 L630.890556,281.652351 C630.781995,278.2722 628.067961,275.486361 624.268314,274.929193 L624.268314,288.152641 L628.140335,288.96982 C637.440424,291.012768 642,295.952989 642,303.976204 C642,313.448056 635.594881,319.316889 624.268314,320.282647 L624.268314,325 Z M631.72286,305.239118 C631.72286,301.821822 629.33451,299.74173 624.268314,298.775972 L624.268314,311.702263 C628.972639,311.405107 631.72286,308.990714 631.72286,305.239118 Z M612.543689,280.90946 C612.543689,284.0296 614.823477,286.183981 619.202118,287.07545 L619.202118,274.892049 C615.29391,275.114916 612.543689,277.603598 612.543689,280.90946 Z" id="$-copy"></path>
                <path d="M514.5,639 C518.466102,639 521,636.26513 521,632.481268 C521,628.697406 518.466102,626 514.5,626 C510.570621,626 508,628.697406 508,632.481268 C508,636.26513 510.570621,639 514.5,639 Z M515.288828,680 L520,656 L509.798365,656 L507,680 L515.288828,680 Z" id=";"></path>
                <polygon id="*" points="682.58871 85.2510013 686 79.2309746 676.745968 75.6261682 686 71.8050734 682.58871 65.7129506 674.71371 71.9853138 675.91129 62 669.08871 62 670.28629 71.9853138 662.41129 65.7129506 659 71.8050734 668.290323 75.6261682 659 79.2309746 662.41129 85.2510013 670.25 79.411215 669.08871 89 675.91129 89 674.75 79.411215"></polygon>
                <path d="M881,572 L881,563 L842,563 L842,572 L881,572 Z M881,554 L881,545 L842,545 L842,554 L881,554 Z" id="="></path>
                <path d="M343,260 L343,251 L304,251 L304,260 L343,260 Z M343,242 L343,233 L304,233 L304,242 L343,242 Z" id="=-copy"></path>
                <polygon id="-" points="724 719 724 709 699 709 699 719"></polygon>
            </g>
        </g>
    </g>
</svg>